<svg xmlns="http://www.w3.org/2000/svg" viewBox="0 0 250 50"><style>.st0{fill:#fdd319}</style><path class="st0" d="M17.6 49.9l-.5-.2c-1-.5-4.7-2.5-8.4-5.7-4-3.4-8.7-9-8.7-16.1V4.7l.5-.3C7 1 16.6.1 17.6.1c1.8 0 10.9 1.1 16.9 4.3l.5.3v23.1c0 7.2-4.7 12.8-8.6 16.2-3.6 3.2-7.3 5.1-8.3 5.6l-.5.3z"/><path d="M77.4 44.1H74l-.5 1.6c-.1.2-.1.4-.1.5 0 .4.3.5 1.1.5v.5h-3.1v-.5c.7-.1.9-.3 1.3-1.3l2.7-8.3h1.3l2.7 8.2c.3.8.5 1.2 1.2 1.3v.5H77v-.5c.7 0 1-.2 1-.6 0-.1 0-.3-.1-.4l-.5-1.5zm-3.1-.7h2.9l-.7-2.2c-.4-1.3-.7-2.3-.8-2.8h-.1c-.2.6-.4 1.5-.8 2.8l-.5 2.2zm13.4-3.5h-.3l-2 .6v.4c.8 0 1 .2 1 1.2v3.3c-.6.6-1.1.9-1.9.9-.7 0-1.1-.3-1.1-1.2v-5.3H83l-2 .6v.4c.8 0 1 .2 1 1.2v3.3c0 1.3.8 1.9 2 1.9 1.1 0 1.8-.6 2.4-1.3 0 .5.2.9.3 1.3h.3l1.8-.5v-.4c-.9 0-1.1-.2-1.1-1.2v-5.2zm2.3 6.9c.4.2 1.1.6 2.4.6 1.7 0 2.8-.9 2.8-2.4 0-1.1-.6-1.7-2-2l-.9-.2c-.9-.2-1.2-.5-1.2-1.2s.5-1.1 1.3-1.1 1.2.4 1.4 1.1h.9v-1.3c-.4-.2-1.1-.5-2.2-.5-1.4 0-2.6.7-2.6 2.1 0 1.2.8 1.8 1.9 2l.9.2c.8.2 1.3.5 1.3 1.3 0 .9-.7 1.3-1.5 1.3-1 0-1.5-.4-1.6-1.4h-1v1.5zm14.6-8.9h1c.9 0 1.1.3 1.3 1.6h.7l-.1-2.3h-7.3v2.3h.7c.1-1.2.3-1.6 1.3-1.6h1.1v7.7c0 .9-.3 1.1-1.3 1.1v.5h4v-.5c-1 0-1.3-.2-1.3-1.1-.1 0-.1-7.7-.1-7.7zm7.6 2c-.8 0-1.4.7-2 1.7 0-.8-.1-1.4-.2-1.7h-.2l-1.9.6v.4c.9 0 1.1.2 1.1 1.2v3.6c0 .8-.2 1-1 1v.5h3.6v-.5c-1.1 0-1.2-.2-1.2-1v-2.5c0-1.4.4-1.9 1.6-1.9.2 0 .4 0 .5.1l.3-1.4c-.3-.1-.4-.1-.6-.1m8 6.8v.5c-.2.1-.6.2-1 .2-1 0-1.3-.4-1.3-1-.2.4-.9 1.2-2 1.2-1.4 0-2.3-.7-2.3-2.1 0-1.7 1.5-2.3 3.8-2.3h.5v-.6c0-1.3-.3-1.8-1.3-1.8-1.2 0-1.6.6-1.7 1.3h-.9v-1.3c.6-.3 1.7-.7 2.7-.7 1.6 0 2.5.7 2.5 2.4 0 .4-.1 1.7-.1 3 0 .9.2 1.1 1.1 1.2m-2.9-3c-1.7 0-2.4.5-2.4 1.6 0 1 .4 1.4 1.3 1.4.7 0 1.3-.5 1.6-1.1v-1.8c-.2-.1-.3-.1-.5-.1m3.9 0c0-2.3 1.1-3.8 3-3.8.7 0 1.4.3 2 .9v-2.1c0-1.1-.2-1.2-1.1-1.2V37l2.1-.4h.3v8.6c0 1.1.2 1.2 1.2 1.2v.4l-1.9.5h-.2c-.1-.3-.3-.7-.3-1.3-.6.7-1.4 1.2-2.2 1.2-1.5.2-2.9-.8-2.9-3.5m3.1 2.9c.7 0 1.3-.4 1.9-1v-3.9c-.5-.6-1.2-.8-1.8-.8-1.1 0-1.8.5-1.8 2.8 0 2.1.6 2.9 1.7 2.9m8.9.1v.5h-3.4v-.5c.8-.1 1-.2 1-1v-3.6c0-1.1-.2-1.2-1.1-1.2v-.4l2.2-.6h.2v5.8c.1.9.2 1 1.1 1m-1.8-7.9c-.5 0-.9-.4-.9-.9s.4-.9.9-.9.9.4.9.9-.4.9-.9.9m7 1.3h-1.7c0-.7.1-1.7.1-2.2l-.7.2c-.3.5-.6 1.3-.7 2l-1 .3v.5h.9v4.6c0 1.5.7 2 1.8 2 .5 0 1-.1 1.4-.4l-.1-.5c-.3.1-.6.1-.8.1-.7 0-.9-.3-.9-1.4v-4.4h1.5l.2-.8zm4.6 6.6v.5h-3.4v-.5c.8-.1 1-.2 1-1v-3.6c0-1.1-.2-1.2-1.1-1.2v-.4l2.2-.6h.2v5.8c.1.9.2 1 1.1 1m-1.8-7.9c-.5 0-.9-.4-.9-.9s.4-.9.9-.9.9.4.9.9-.4.9-.9.9m6.1 8.6c-2 0-3.3-1.4-3.3-3.8s1.4-3.8 3.3-3.8c2.2 0 3.4 1.6 3.4 3.8-.1 2.4-1.5 3.8-3.4 3.8m-.1-6.8c-1.5 0-1.9 1.1-1.9 2.9 0 2.2.5 3.2 2 3.2 1.3 0 1.9-1.1 1.9-2.9 0-2.3-.7-3.2-2-3.2m12.1 6.1c-.8-.1-.9-.2-.9-1v-3.9c0-1.3-.8-2-2-2-1.1 0-1.8.6-2.5 1.3 0-.5-.1-1-.2-1.3h-.2l-1.9.6v.4c.9 0 1.1.2 1.1 1.2v3.6c0 .8-.2 1-1 1v.5h3.4v-.5c-.9 0-1-.2-1-.9v-4c.6-.6 1.1-.9 2-.9.7 0 1.1.3 1.1 1.2v3.7c0 .7-.1.9-1 .9v.5h3.3l-.2-.4zm11.1-5.7c-.3 0-.6-.1-1-.3.5.4.9.9.9 1.5 0 1-.7 2.2-3 2.2-.5.1-.9.4-.9.8 0 .2.2.4.5.4h1.3c1.7 0 2.7.5 2.7 2 0 1.4-1.4 2.3-3.2 2.3-2 0-3.1-.8-3.1-1.7 0-.5.4-.8.7-1h.6c-.1.1-.2.5-.2.8 0 .8.4 1.3 1.8 1.3 1.5 0 2-.6 2-1.4 0-.9-.4-1.1-2.3-1.1-.5 0-1-.1-1.3-.1-.6-.1-.9-.6-.9-1.1 0-.6.6-1 1.4-1.3-1.1-.2-1.7-1.1-1.7-2.1 0-1.4 1.1-2.4 2.7-2.4.4 0 .7 0 1.1.2.4.1.8.2 1.1.2.4 0 .8-.2 1.2-.4l.5.9c-.2.2-.6.3-.9.3m-2.9-.4c-.9 0-1.3.5-1.3 1.7 0 1.1.5 1.6 1.3 1.6.9 0 1.3-.5 1.3-1.6 0-1.2-.4-1.7-1.3-1.7m11.4 4.6c0 1.1.2 1.2 1.1 1.2v.4l-1.8.5h-.2c-.2-.4-.3-.8-.3-1.3-.7.7-1.3 1.3-2.4 1.3-1.2 0-2-.6-2-1.9v-3.3c0-1.1-.2-1.2-1-1.2v-.4l2-.6h.3v5.3c0 .9.4 1.2 1.1 1.2.9 0 1.4-.4 1.9-.9v-3.3c0-1.1-.2-1.2-1-1.2v-.4l2-.6h.3v5.2zm-4.3-6.4c-.5 0-.9-.4-.9-.9s.4-.9.9-.9.9.4.9.9c-.1.6-.5.9-.9.9m3 0c-.5 0-.9-.4-.9-.9s.4-.9.9-.9.9.4.9.9c0 .6-.4.9-.9.9m11.2 7.9c-.8-.1-.9-.2-.9-1v-3.9c0-1.3-.8-2-2-2-1.1 0-1.8.6-2.5 1.3 0-.5-.1-1-.2-1.3h-.2l-1.9.6v.4c.9 0 1.1.2 1.1 1.2v3.6c0 .8-.2 1-1 1v.5h3.4v-.5c-.9 0-1-.2-1-.9v-4c.6-.6 1.1-.9 2-.9.7 0 1.1.3 1.1 1.2v3.7c0 .7-.1.9-1 .9v.5h3.3l-.2-.4zm1.3.1c.3.2 1.1.6 2.4.6 1.7 0 2.8-.9 2.8-2.4 0-1.1-.6-1.7-2-2l-.9-.2c-.9-.2-1.2-.5-1.2-1.2s.5-1.1 1.3-1.1 1.2.4 1.4 1.1h.9v-1.3c-.3-.2-1.1-.5-2.2-.5-1.4 0-2.6.7-2.6 2.1 0 1.2.8 1.8 1.8 2l.9.2c.8.2 1.3.5 1.3 1.3 0 .9-.7 1.3-1.5 1.3-1 0-1.5-.4-1.6-1.4h-1v1.5zm10.2-6.7h-1.7c0-.7.1-1.7.1-2.2l-.7.2c-.3.5-.6 1.3-.7 2l-1 .3v.5h.9v4.6c0 1.5.7 2 1.8 2 .5 0 1-.1 1.4-.4l-.1-.5c-.3.1-.6.1-.8.1-.7 0-.9-.3-.9-1.4v-4.4h1.5l.2-.8zm4.6 6.6v.5h-3.4v-.5c.8-.1 1-.2 1-1v-3.6c0-1.1-.2-1.2-1.1-1.2v-.4l2.2-.6h.2v5.8c.1.9.2 1 1.1 1m-1.8-7.9c-.5 0-.9-.4-.9-.9s.4-.9.9-.9.9.4.9.9-.4.9-.9.9m8.5 2.2c-.3 0-.6-.1-1-.3.5.4.9.9.9 1.5 0 1-.7 2.2-3 2.2-.5.1-.9.4-.9.8 0 .2.2.4.5.4h1.3c1.7 0 2.7.5 2.7 2 0 1.4-1.4 2.3-3.2 2.3-2 0-3.1-.8-3.1-1.7 0-.5.4-.8.7-1h.6c-.1.1-.2.5-.2.8 0 .8.4 1.3 1.8 1.3 1.5 0 2-.6 2-1.4 0-.9-.4-1.1-2.3-1.1-.5 0-1-.1-1.3-.1-.6-.1-.9-.6-.9-1.1 0-.6.6-1 1.4-1.3-1.1-.2-1.7-1.1-1.7-2.1 0-1.4 1.1-2.4 2.7-2.4.4 0 .7 0 1.1.2.4.1.8.2 1.1.2.4 0 .8-.2 1.2-.4l.5.9c-.2.2-.5.3-.9.3m-2.9-.4c-.9 0-1.3.5-1.3 1.7 0 1.1.5 1.6 1.3 1.6.9 0 1.3-.5 1.3-1.6 0-1.2-.4-1.7-1.3-1.7M46.5 25.7c0 .8-.2.9-.8 1l-1 .1v3.1h9v-3.1l-1.7-.1V21h7v4.7c0 .8-.2.9-.8 1l-1 .1v3.1h9.1v-3.2l-1.7-.1v-14c0-.8.2-.9.8-1l1-.1V8.4h-8.9v3.1l1.6.1V17h-7v-4.5c0-.7.2-.8.8-.9l1-.1V8.4h-9.1v3.2l1.7.1v14zm41.6-13.1c0-.7.2-.9.8-1l1-.1V8.4h-8.4v3.1l1.5.1v11.5c0 2.2-1.6 3.2-3.5 3.2-2 0-3.8-.7-3.8-3.3V12.6c0-.7.2-.8.8-.9l1.1-.1V8.4h-9.1v3.2l1.7.1v11.1c0 5.2 3.4 7.5 9 7.5 5 0 8.9-2.7 8.9-7V12.6zm17.7 4.4l4.2-4.6c.3-.3.7-.7 1.2-.8l.8-.1V8.4h-8.2v3.1l1.1.1-6.3 6.6v-5.8c0-.5.3-.8.7-.9l.8-.1v-3h-8.8v3.2l1.7.1v14.1c0 .5-.3.8-.7.9l-1 .1v3.1h8.5v-3.1l-1.2-.1V24l3.1-3.2 2.6 5.1c.2.4.2.7-.3.8l-1 .1v3.1h9.7v-3.2l-2.3-.3-4.6-9.4zm7.3 5.4h8.5v-4h-8.5v4zm105.5-4.1c1.5 0 3.1-.8 3.1-3.2 0-2.1-1.2-2.9-3.1-2.9h-1.8v6.1h1.8zm-9.1 8.5l1-.1c.6-.1.7-.3.7-1v-14l-1.8-.1V8.4h10.7c4.1 0 7.2 1.8 7.2 5.9 0 3.7-2 5.1-4.1 5.6 0 0 2 .2 2.7 1.9l1.6 4.8 1.8.2v3.1h-8.7v-3.1l.7-.1c.5-.1.6-.4.3-.9l-1-2.7c-.3-.8-1.4-1.2-2.4-1.2h-1.3v4.8l1.3.2v3h-8.6l-.1-3.1zm-73.7-14.5c.5 0 1.3.1 1.9.2.4.1.5.4.5.9l.2 1.9 3.9-.5V9.3c-1.8-.8-4.3-1.3-6.8-1.3-5.2 0-10.4 2.8-10.4 11.3 0 7.2 3.8 11 10.5 11 2.6 0 5-.5 6.7-1.2v-6.3h-3.9l-.2 3s-1 .2-2.3.2c-3.8-.1-5.3-3-5.3-7 0-4.6 2-6.7 5.2-6.7M154.3 26c3.2 0 4.1-3.4 4.1-6.7 0-2.7-.7-7-4.2-7-3.1 0-4.2 3.4-4.2 6.7 0 3 .6 7 4.3 7m-.2 4.3c-6.1 0-9.6-3.7-9.6-11.1 0-8.3 5.2-11.2 10.1-11.2 5.1 0 9.4 3 9.4 11.2 0 7.4-3.9 11.1-9.9 11.1m19.4-4.5h2c2.4 0 3.2-1 3.2-2.8 0-1.8-1.1-2.8-3.1-2.8h-2.1v5.6zm0-9.1h1.5c2 0 2.9-1 2.9-2.7 0-1.7-1-2.4-2.8-2.4h-1.6v5.1zm2.8-8.3c3.9 0 7.3 1.2 7.3 5.1 0 2.4-1.3 4-3.3 4.8 2.6.6 4.3 2.4 4.3 5 0 4.3-3.1 6.6-8.8 6.6h-9.7v-3.1l1-.1c.6-.1.7-.3.7-1v-14l-1.8-.1V8.4h10.3zm29.1 4.2c0-.7.2-.9.8-1l1-.1V8.4h-8.4v3.1l1.5.1v11.5c0 2.2-1.2 3.2-3.1 3.2-2 0-3.4-.7-3.4-3.3V12.6c0-.7.2-.8.8-.9l1.1-.1V8.4h-9.1v3.2l1.7.1v11.1c0 5.2 2.9 7.5 8.6 7.5 5 0 8.6-2.7 8.6-7.1l-.1-10.6zm37.8 13.1c-.8.3-1.7.4-2.6.4-3.2 0-4.8-2.6-4.8-7.1 0-4 1.8-6.7 5.6-6.7.7 0 1.5.1 2.1.2.4.1.5.4.5.9l.1 1.8 4-.4V9.4c-1.5-.8-4.1-1.4-6.9-1.4-5.6 0-10.9 2.9-10.9 11.2 0 7.5 3.9 11.1 10.1 11.1 3.2 0 6.1-.7 7.9-1.5V23c0-.6.2-.8.8-.9l.9-.1v-3h-8.7v3.1l2 .1v3.5zM3.5 28.1c0 .3-.1.4-.3.5h-.4V30h4v-1.4l-.7-.1V26H9v2.1c0 .3-.1.4-.3.5h-.5V30h4v-1.4l-.7-.1v-6.2c0-.3.1-.4.3-.4h.4v-1.4H8.3v1.4H9v2.4H5.9v-2c0-.3.1-.4.3-.4h.5v-1.4h-4v1.4l.8.1v6.1zm18.3-5.8c0-.3.1-.4.4-.4h.4v-1.4h-3.7v1.4l.7.1v5c0 1-.7 1.4-1.5 1.4-.9 0-1.7-.3-1.7-1.5v-4.6c0-.3.1-.4.3-.4h.5v-1.4h-4v1.4l.8.1v4.9c0 2.3 1.5 3.3 4 3.3 2.2 0 3.9-1.2 3.9-3.1l-.1-4.8zm7.7 1.9l1.9-2c.1-.1.3-.3.5-.3l.4-.1v-1.3h-3.6v1.4h.5l-2.8 2.9v-2.5c0-.2.1-.4.3-.4h.4v-1.4h-3.9v1.4l.8.1v6.2c0 .2-.1.4-.3.4l-.4.1v1.4H27v-1.4h-.5v-1.2l1.4-1.4 1.2 2.2c.1.2.1.3-.1.4l-.4.1v1.4h4.3v-1.4l-1-.1-2.4-4.5zm.4-15.8L28 13.1v1.6c-.8-.3-1.8-.6-2.3-.8l-.6-2.9-7.3-1.6-1.5 3.4c-1 .1-2.7.4-2.7.4v-2.5l-.6-.5s.3-.4.4-.5c.2-.4.2-.8.2-1 0-1.5-1.8-2.2-1.8-2.2l-.2-.8v-.2c.3-.2.8-.4 1.5-.4 1.3 0 1.4.3 2.3.4 1.9.3 2.9-1.1 2.9-1.1s-1.9.6-2.9.1c-.8-.4-1.4-1-2.6-1-1.1 0-1.6.5-1.6.5v1.8l-.2.7s-1.8.7-1.8 2.2c0 .2 0 .6.2 1 .1.2.4.5.4.5l-.6.4v3.7c-.7.3-1.5.7-2.1 1v-1.2l.5-.8V11h-.8L5.3 7.2 3.8 11H3v2.3l.5.8v5h1v-5.3l-.5-.7V12h.5l.8-2 .8 2h.5v1.1l-.5.8V17c.1-.1 2.1-1.2 4.1-1.9v-4s.4-.3.5-.4c.1-.1.1-.2.1-.4s-.1-.4-.3-.6c-.2-.3-.3-.5-.3-.9 0-.9 1.2-1.5 1.2-1.5s1.2.6 1.2 1.5c0 .3-.1.6-.3.9-.2.1-.3.3-.3.5s0 .3.1.4c.1.1.5.4.5.4v3.3s1.9-.4 4.3-.6l1.4-3.2 5.9 1.3.6 2.8c1.1.3 3.1 1 4.1 1.5v-2.8l1-2.3 1 2.3v5.8h1v-6l-2-4.7zm-.4 22.9c-2.2 6.1-8.8 10.6-11.9 12.5-3.1-1.9-9.7-6.4-11.9-12.5H4.4c2.3 7.8 13.1 13.9 13.2 13.9.1 0 10.9-6.1 13.2-13.9h-1.3zm4.5-3.5c0 6.8-4.5 12.2-8.3 15.5-3.6 3.1-7.2 5-8.1 5.5-.9-.5-4.6-2.4-8.2-5.6-3.8-3.3-8.3-8.7-8.3-15.4V5.3C7.3 2 16.6 1.1 17.6 1.1c1.5 0 10.6 1.1 16.4 4.2.1 2.7 0 21.6 0 22.5M17.6 0C13.1.1 4.5 2 0 4.6v23.2c0 3.2.9 6.3 2.7 9.3 1.4 2.4 3.5 4.7 6 6.9 4.3 3.7 8.5 5.7 8.7 5.8l.2.1.2-.1c.2-.1 4.4-2.1 8.6-5.8 2.5-2.2 4.5-4.5 6-6.9 1.8-3 2.7-6.2 2.7-9.4V4.5C30.5 1.8 21.6.1 17.6 0"/></svg>